# xmcd CD database file
#
# Track frame offsets:
#	150
#	27827
#	48827
#	85195
#	134290
#	177312
#	200365
#	233420
#	251202
#	263127
#	290907
#
# Disc length: 4242 seconds
#
# Revision: 0
# Processed by: cddbd v1.5.2PL0 Copyright (c) Steve Scherf et al.
# Submitted via: CDex 1.70beta2
#
DISCID=9710900b
DTITLE=Vinny Golia - 11 Reasons To Begin
DYEAR=1996
DGENRE=Jazz
TTITLE0=2 In 1
TTITLE1=Dialogue
TTITLE2=Doubles
TTITLE3=Triologue
TTITLE4=How Many Sunsets?
TTITLE5=Songs For R.E.
TTITLE6=Green
TTITLE7=Music For Bass Clarinet
TTITLE8=An Existential Prelude
TTITLE9=Wind Songs
TTITLE10=Hymn For Her
EXTD=YEAR: 1996
EXTT0=
EXTT1=
EXTT2=
EXTT3=
EXTT4=
EXTT5=
EXTT6=
EXTT7=
EXTT8=
EXTT9=
EXTT10=
PLAYORDER=
